:SAMPLES-PER-SECOND 30
:FULLY-SPECIFIED
:DEGREES
375
root  -23.5595 17.5799 4.56975 107.826 -86.3882 -114.462
RightUpLeg  -41.3162 -12.0081 -13.0811
RightLeg  140.296 20.474 -14.6527
RightFoot  -19.2539 0.835892 13.9208
RightToes  0.000482159 0.542163 -0.142577
Spine  31.7982 -0.777094 2.66146
Spine1  -2.57093 -0.977397 4.94495
HEad  32.8159 -2.37438 -6.94145
LeftShoulder1  0.145327 0.752604 3.64066
LeftArm  -98.0238 -38.1747 14.0304
LeftForeArm  131.567 -81.3881 -97.0228
LeftHand  -0.25398 0.0180481 5.50724
RightShoulder  0.813047 -16.5374 -16.6535
RightArm  -98.8422 49.7639 -16.6721
RightForeArm  33.702 72.7767 35.556
RightHand  -11.304 24.3181 -42.5008
LeftUpLeg  -44.0225 -1.43784 5.37337
LeftLeg  146.501 -1.24208 0.389907
LeftFoot  -23.82 -1.51261 -15.0646
LeftToes  1.06244e-005 4.65856e-005 -8.18505e-006
376
root  -23.5689 17.5904 4.52409 112.209 -86.5445 -118.637
RightUpLeg  -41.7094 -11.989 -13.0115
RightLeg  140.282 20.7093 -14.8196
RightFoot  -19.1565 0.817763 13.822
RightToes  0.000482159 0.542163 -0.142577
Spine  31.7551 -0.682809 2.47677
Spine1  -2.66783 -0.972465 5.01494
HEad  33.0393 -1.57853 -6.36828
LeftShoulder1  0.143435 0.790284 3.64847
LeftArm  -98.076 -38.2364 14.0135
LeftForeArm  130.946 -81.4006 -96.3719
LeftHand  -0.25398 0.0180481 5.50724
RightShoulder  0.853037 -16.6842 -16.9162
RightArm  -98.8729 49.7941 -16.5005
RightForeArm  33.0616 72.5891 35.1328
RightHand  -11.3165 24.2944 -42.5742
LeftUpLeg  -44.1755 -1.23318 5.2281
LeftLeg  146.459 -1.48954 0.542822
LeftFoot  -23.8018 -1.4676 -14.6791
LeftToes  1.06244e-005 4.65856e-005 -8.18505e-006
377
root  -23.5729 17.5955 4.49548 115.034 -86.6091 -121.318
RightUpLeg  -41.9489 -11.9902 -12.9384
RightLeg  140.284 20.8485 -14.9129
RightFoot  -19.1757 0.815488 13.7572
RightToes  0.000482159 0.542163 -0.142577
Spine  31.7704 -0.731383 2.52422
Spine1  -2.76996 -1.00829 4.93931
HEad  33.3635 -0.87536 -5.75388
LeftShoulder1  0.13349 0.892481 3.84052
LeftArm  -98.0347 -38.3106 13.8273
LeftForeArm  131.105 -81.4048 -96.39
LeftHand  -0.25398 0.0180481 5.50724
RightShoulder  0.865841 -16.8461 -16.9345
RightArm  -99.0242 49.9407 -16.5601
RightForeArm  32.6692 72.4306 34.7509
RightHand  -11.3527 24.3143 -42.6713
LeftUpLeg  -44.308 -1.08845 5.16023
LeftLeg  146.44 -1.66935 0.653884
LeftFoot  -23.746 -1.42671 -14.3718
LeftToes  1.06244e-005 4.65856e-005 -8.18505e-006
378
root  -23.5697 17.5937 4.47902 116.166 -86.6242 -122.44
RightUpLeg  -41.9671 -12.026 -12.8693
RightLeg  140.282 20.9686 -14.9954
RightFoot  -19.2855 0.82985 13.7828
RightToes  0.000482159 0.542163 -0.142577
Spine  31.9107 -0.897037 2.73502
Spine1  -2.85405 -1.08257 4.80619
HEad  33.6712 -0.246537 -5.1176
LeftShoulder1  0.123735 0.968484 4.10289
LeftArm  -97.9368 -38.3176 13.6264
LeftForeArm  131.726 -81.3997 -96.8342
LeftHand  -0.25398 0.0180481 5.50724
RightShoulder  0.862379 -16.9074 -16.8713
RightArm  -99.1039 50.0074 -16.608
RightForeArm  32.6362 72.3599 34.5516
RightHand  -11.3872 24.3821 -42.6994
LeftUpLeg  -44.2892 -1.02883 5.20034
LeftLeg  146.424 -1.59508 0.608853
LeftFoot  -23.7769 -1.43743 -14.4344
LeftToes  1.06244e-005 4.65856e-005 -8.18505e-006
379
root  -23.5635 17.591 4.46216 117.8 -86.6504 -124.113
RightUpLeg  -41.9489 -12.0347 -12.8144
RightLeg  140.266 21.1298 -15.1124
RightFoot  -19.3895 0.847712 13.8665
RightToes  0.000482159 0.542163 -0.142577
Spine  32.0252 -0.995673 2.83735
Spine1  -2.78632 -1.15177 4.82633
HEad  33.9476 0.327554 -4.55222
LeftShoulder1  0.118123 1.03844 4.2055
LeftArm  -97.9755 -38.3 13.6164
LeftForeArm  132.519 -81.3893 -97.5345
LeftHand  -0.25398 0.0180481 5.50724
RightShoulder  0.880451 -16.9495 -16.9993
RightArm  -99.0793 49.9631 -16.4699
RightForeArm  32.8238 72.3845 34.5806
RightHand  -11.387 24.4242 -42.6431
LeftUpLeg  -44.201 -0.953123 5.23225
LeftLeg  146.407 -1.48148 0.539634
LeftFoot  -23.8681 -1.4623 -14.5581
LeftToes  1.06244e-005 4.65856e-005 -8.18505e-006
380
root  -23.5577 17.5891 4.44339 120.644 -86.6848 -126.943
RightUpLeg  -42.0565 -12.0018 -12.7632
RightLeg  140.253 21.3069 -15.2386
RightFoot  -19.4376 0.855873 13.9029
RightToes  0.000482159 0.542163 -0.142577
Spine  31.9778 -0.966086 2.77595
Spine1  -2.51284 -1.19614 5.04214
HEad  34.1986 0.811133 -4.04829
LeftShoulder1  0.111679 1.19649 4.14929
LeftArm  -98.2026 -38.3606 13.7315
LeftForeArm  133.533 -81.3732 -98.5274
LeftHand  -0.25398 0.0180481 5.50724
RightShoulder  0.917335 -17.0892 -17.228
RightArm  -99.1642 49.9567 -16.4045
RightForeArm  32.9647 72.4323 34.6879
RightHand  -11.3608 24.3925 -42.5961
LeftUpLeg  -44.1918 -0.803426 5.18356
LeftLeg  146.396 -1.50803 0.556282
LeftFoot  -23.9036 -1.45484 -14.4519
LeftToes  1.06244e-005 4.65856e-005 -8.18505e-006
381
root  -23.5526 17.5839 4.42997 123.317 -86.7074 -129.553
RightUpLeg  -42.2401 -11.9888 -12.7136
RightLeg  140.252 21.4673 -15.3475
RightFoot  -19.4627 0.855217 13.8534
RightToes  0.000482159 0.542163 -0.142577
Spine  31.861 -0.939977 2.74828
Spine1  -2.23529 -1.23495 5.23973
HEad  34.4399 1.13992 -3.52613
LeftShoulder1  0.104914 1.38036 4.10165
LeftArm  -98.395 -38.4866 13.7934
LeftForeArm  134.648 -81.3553 -99.5868
LeftHand  -0.25398 0.0180481 5.50724
RightShoulder  0.9346 -17.2419 -17.2837
RightArm  -99.3602 50.0418 -16.5931
RightForeArm  32.9494 72.4356 34.7012
RightHand  -11.3726 24.3775 -42.6558
LeftUpLeg  -44.2768 -0.640759 5.09461
LeftLeg  146.397 -1.58393 0.602861
LeftFoot  -23.8578 -1.42959 -14.2753
LeftToes  1.06244e-005 4.65856e-005 -8.18505e-006
382
root  -23.5486 17.5756 4.42394 125.167 -86.7266 -131.35
RightUpLeg  -42.3726 -12.0194 -12.6793
RightLeg  140.243 21.6278 -15.4602
RightFoot  -19.5202 0.859023 13.8144
RightToes  0.000482159 0.542163 -0.142577
Spine  31.8482 -1.00332 2.86051
Spine1  -2.19026 -1.27585 5.26982
HEad  34.6968 1.29576 -3.07425
LeftShoulder1  0.106866 1.41073 4.0698
LeftArm  -98.3747 -38.5679 13.8355
LeftForeArm  135.415 -81.344 -100.238
LeftHand  -0.25398 0.0180481 5.50724
RightShoulder  0.926622 -17.2588 -17.2087
RightArm  -99.3805 50.1256 -16.747
RightForeArm  32.8614 72.3966 34.6071
RightHand  -11.4543 24.4721 -42.8079
LeftUpLeg  -44.3682 -0.532636 5.01563
LeftLeg  146.397 -1.59721 0.612369
LeftFoot  -23.7888 -1.41782 -14.244
LeftToes  1.06244e-005 4.65856e-005 -8.18505e-006
383
root  -23.5471 17.571 4.42083 127.148 -86.7373 -133.31
RightUpLeg  -42.4305 -12.0347 -12.6634
RightLeg  140.211 21.7966 -15.5907
RightFoot  -19.6168 0.87376 13.8641
RightToes  0.000482159 0.542163 -0.142577
Spine  31.937 -1.07726 3.00017
Spine1  -2.30312 -1.30168 5.26186
HEad  34.957 1.30811 -2.90785
LeftShoulder1  0.111441 1.30392 3.96948
LeftArm  -98.2665 -38.5797 13.9344
LeftForeArm  135.769 -81.3403 -100.481
LeftHand  -0.25398 0.0180481 5.50724
RightShoulder  0.929873 -17.1924 -17.2729
RightArm  -99.1557 50.1814 -16.5736
RightForeArm  32.7645 72.3565 34.5124
RightHand  -11.53 24.5662 -42.9395
LeftUpLeg  -44.4002 -0.456455 4.94535
LeftLeg  146.382 -1.57987 0.605431
LeftFoot  -23.7384 -1.41567 -14.2819
LeftToes  1.06244e-005 4.65856e-005 -8.18505e-006
384
root  -23.5472 17.5733 4.4173 129.824 -86.7189 -135.983
RightUpLeg  -42.4759 -11.9908 -12.6592
RightLeg  140.17 21.9371 -15.7073
RightFoot  -19.6969 0.887524 13.9254
RightToes  0.000482159 0.542163 -0.142577
Spine  32.0009 -1.08738 3.0726
Spine1  -2.32122 -1.30264 5.34065
HEad  35.191 1.19066 -2.99079
LeftShoulder1  0.114252 1.26164 3.91479
LeftArm  -98.2539 -38.6058 13.937
LeftForeArm  136.121 -81.3368 -100.752
LeftHand  -0.25398 0.0180481 5.50724
RightShoulder  0.951343 -17.1831 -17.4546
RightArm  -98.9507 50.2693 -16.2546
RightForeArm  32.6506 72.3311 34.4649
RightHand  -11.5155 24.513 -42.9608
LeftUpLeg  -44.3664 -0.352966 4.8708
LeftLeg  146.351 -1.57697 0.600065
LeftFoot  -23.7172 -1.40885 -14.257
LeftToes  1.06244e-005 4.65856e-005 -8.18505e-006
